# xmcd
#
# Track frame offsets:
#	150
#	19624
#	38274
#	57303
#	75135
#	91828
#	109542
#	125247
#	145510
#	165276
#	189603
#	208501
#	228298
#	244626
#	262476
#	282839
#	309513
#
# Disc length: 4374 seconds
#
# Revision: 1
# Processed by: cddbd v1.4PL0 Copyright (c) Steve Scherf et al.
# Submitted via: EasyCDDAExtractor 6.0.0.1
#
DISCID=d3111411
DTITLE=Various Artist - solitude ballad cd1
DYEAR=1900
DGENRE=
TTITLE0=이수영 - 덩그러니
TTITLE1=다비 - never say never
TTITLE2=효리 - 어느 째즈바에서
TTITLE3=And - 소나기
TTITLE4=휘성 - I am missing you
TTITLE5=이정 - 다신
TTITLE6=Seven - 한번 단한번
TTITLE7=서영은 - 내안의 그대
TTITLE8=UN(김정훈) - 유리
TTITLE9=김범수 - 니가 날 떠나
TTITLE10=JK김동욱 - 돌아와 제발
TTITLE11=서진영 - missing U
TTITLE12=쿨 - 추억이 오는날
TTITLE13=페이지(이가은) - 단심가
TTITLE14=YB윤도현 - 잊을게
TTITLE15=옥주현 - 하루만큼
TTITLE16=the cross - Don't cry
EXTD=
EXTT0=
EXTT1=
EXTT2=
EXTT3=
EXTT4=
EXTT5=
EXTT6=
EXTT7=
EXTT8=
EXTT9=
EXTT10=
EXTT11=
EXTT12=
EXTT13=
EXTT14=
EXTT15=
EXTT16=
PLAYORDER=
